<?xml version="1.0" standalone="no"?>
<!DOCTYPE svg PUBLIC "-//W3C//DTD SVG 20010904//EN"
 "http://www.w3.org/TR/2001/REC-SVG-20010904/DTD/svg10.dtd">
<svg version="1.0" xmlns="http://www.w3.org/2000/svg"
 width="1170.000000pt" height="1170.000000pt" viewBox="0 0 1170.000000 1170.000000"
 preserveAspectRatio="xMidYMid meet">
<metadata>
Created by potrace 1.16, written by Peter Selinger 2001-2019
</metadata>
<g transform="translate(0.000000,1170.000000) scale(0.100000,-0.100000)"
fill="#000000" stroke="none">
<path d="M7090 10091 c-149 -17 -265 -83 -327 -188 -30 -52 -26 -89 12 -99 30
-8 40 -1 70 46 34 54 71 87 135 117 149 71 488 22 889 -128 145 -54 148 -56
290 -127 328 -166 440 -294 472 -540 10 -82 7 -158 -17 -367 -31 -270 -106
-596 -210 -905 -40 -118 -95 -262 -124 -325 -86 -185 -93 -212 -66 -235 22
-18 59 -8 73 20 67 130 194 454 253 650 153 501 225 1022 174 1253 -50 227
-199 380 -529 544 -378 189 -847 310 -1095 284z"/>
<path d="M6902 9738 c-134 -196 -352 -639 -466 -946 -124 -335 -225 -707 -261
-962 -4 -25 -9 -53 -11 -62 -5 -18 28 -58 49 -58 27 0 38 20 53 96 79 410 167
721 299 1056 71 181 259 562 363 737 88 147 93 173 34 179 -26 3 -34 -3 -60
-40z"/>
<path d="M7312 9648 c-39 -49 -240 -479 -349 -748 -167 -410 -366 -1037 -343
-1079 26 -49 83 -29 95 33 14 67 114 401 161 538 86 250 183 502 240 626 19
41 34 75 34 78 0 7 37 86 142 303 54 112 98 210 98 217 0 34 -57 57 -78 32z"/>
<path d="M7937 9403 c-8 -10 -18 -38 -21 -63 -53 -401 -100 -696 -162 -1015
-9 -44 -22 -109 -29 -145 -23 -119 -65 -302 -131 -566 -35 -143 -62 -268 -58
-277 10 -27 53 -33 74 -11 16 17 50 145 135 499 39 162 127 597 159 790 10 55
23 136 31 180 8 44 23 150 35 235 11 85 25 182 30 216 15 94 13 161 -6 168
-26 10 -40 7 -57 -11z"/>
<path d="M6288 7633 c-8 -10 -25 -51 -38 -91 -12 -40 -27 -75 -31 -78 -5 -3
-32 6 -60 20 -77 39 -109 31 -109 -26 0 -25 8 -32 65 -60 38 -19 65 -39 65
-48 0 -8 -16 -62 -36 -119 -41 -123 -42 -155 -1 -159 36 -4 53 10 68 56 47
149 62 182 83 182 12 0 26 -4 32 -9 13 -12 168 -72 314 -121 140 -46 361 -104
462 -120 37 -5 73 -12 80 -15 7 -2 87 -13 178 -24 189 -23 479 -35 560 -24 55
8 55 8 58 45 3 32 0 38 -20 42 -13 3 -124 7 -248 10 -384 9 -725 69 -1076 190
-136 47 -303 113 -317 126 -5 4 5 47 22 95 36 101 38 121 12 135 -28 15 -46
12 -63 -7z"/>
<path d="M5885 7106 c-23 -35 -9 -56 75 -106 302 -179 650 -301 1015 -357 171
-26 610 -26 775 1 126 20 273 50 288 60 18 11 20 44 5 66 -14 19 -21 21 -67
15 -28 -4 -61 -11 -72 -16 -12 -4 -88 -18 -170 -30 -206 -31 -544 -31 -748 0
-347 53 -664 164 -969 340 -48 28 -94 51 -102 51 -8 0 -22 -11 -30 -24z"/>
<path d="M6224 6622 c-22 -14 -32 -49 -39 -130 -6 -60 -4 -86 5 -97 19 -22 57
-18 74 8 15 25 30 186 19 203 -11 16 -46 25 -59 16z"/>
<path d="M3935 6574 c-213 -45 -415 -222 -442 -389 -4 -27 -1 -35 16 -45 37
-19 58 -3 96 76 84 173 255 274 466 274 228 0 452 -141 556 -350 35 -69 38
-82 38 -160 -1 -67 -5 -94 -22 -126 -32 -61 -80 -102 -139 -119 -58 -17 -73
-39 -54 -76 10 -19 18 -21 61 -17 95 10 193 97 234 211 26 71 24 192 -4 270
-60 169 -248 352 -431 419 -66 25 -192 48 -252 47 -29 0 -84 -7 -123 -15z"/>
<path d="M1970 6558 c-63 -33 -85 -67 -85 -136 0 -66 25 -110 77 -135 28 -13
36 -14 53 -3 33 22 31 60 -4 86 -39 27 -40 61 -4 90 77 61 177 -48 123 -134
l-21 -36 26 -26 c24 -24 28 -25 48 -11 43 28 61 65 61 120 -1 90 -56 167 -143
196 -50 16 -82 14 -131 -11z"/>
<path d="M8106 6569 c-88 -21 -134 -72 -100 -110 21 -23 51 -25 74 -4 21 19
80 30 114 21 35 -9 94 -62 115 -105 39 -77 34 -207 -11 -294 -49 -96 -161
-180 -260 -193 l-46 -6 -8 58 c-16 133 -54 184 -103 135 -18 -18 -18 -22 -4
-82 60 -255 -107 -495 -366 -527 -49 -6 -57 -10 -66 -36 -14 -39 19 -67 73
-60 214 30 385 172 451 374 11 34 14 36 78 48 188 36 336 176 374 353 16 75 6
203 -21 262 -57 126 -177 194 -294 166z"/>
<path d="M6982 6471 c-9 -5 -18 -42 -23 -91 -5 -45 -12 -87 -15 -92 -3 -5 2
-20 11 -34 23 -35 65 -30 84 11 20 41 27 180 11 200 -14 16 -47 20 -68 6z"/>
<path d="M3903 6307 c-86 -44 -174 -116 -227 -184 -85 -108 -151 -279 -144
-373 3 -42 5 -45 34 -48 40 -4 50 10 62 91 26 168 152 341 307 423 77 40 91
58 81 100 -9 33 -37 31 -113 -9z"/>
<path d="M4162 6228 c-19 -19 -14 -57 10 -76 78 -62 108 -116 108 -197 0 -111
-52 -173 -213 -254 -158 -79 -232 -153 -197 -196 21 -25 54 -17 99 25 25 24
92 64 158 96 175 84 244 169 251 309 5 100 -23 172 -99 247 -58 59 -91 72
-117 46z"/>
<path d="M5902 6228 c-16 -16 -15 -51 3 -95 l15 -37 -49 -43 c-101 -89 -160
-286 -91 -308 36 -11 56 10 68 75 14 78 52 143 103 177 l39 26 78 -36 c113
-52 194 -76 317 -94 138 -20 232 -8 295 38 44 32 50 57 22 82 -24 22 -33 21
-84 -5 -95 -50 -372 -11 -545 77 -35 18 -83 69 -83 89 0 21 -40 66 -59 66 -9
0 -22 -5 -29 -12z"/>
<path d="M2380 6023 c-111 -21 -147 -178 -78 -340 26 -61 39 -80 61 -87 23 -8
31 -6 49 11 l21 22 -30 68 c-54 120 -53 215 2 229 32 8 86 -31 109 -79 25 -55
21 -154 -9 -211 -30 -57 -31 -77 -5 -101 18 -16 21 -16 44 -2 13 9 37 42 53
74 25 52 28 69 28 153 0 77 -4 102 -22 135 -46 87 -143 143 -223 128z"/>
<path d="M6995 6011 c-28 -32 -13 -68 38 -90 100 -44 168 -118 202 -220 14
-44 17 -74 12 -152 -7 -111 2 -130 51 -113 33 12 50 63 51 155 2 192 -131 375
-315 433 -14 4 -26 0 -39 -13z"/>
<path d="M5967 5921 c-49 -54 -68 -94 -74 -156 -7 -67 -3 -69 143 -84 65 -7
141 -22 185 -37 132 -45 148 -49 167 -38 9 6 18 23 20 38 3 24 -3 29 -61 56
-75 34 -201 68 -287 77 -74 7 -77 21 -20 81 41 42 49 69 28 90 -24 24 -64 14
-101 -27z"/>
<path d="M3900 5913 c-30 -20 -88 -69 -127 -109 -98 -96 -136 -176 -141 -290
-4 -80 -4 -81 31 -118 31 -32 41 -37 74 -34 34 3 38 6 41 32 3 22 -4 35 -27
57 -37 33 -39 58 -11 135 27 78 89 154 179 221 42 31 77 57 77 57 1 1 5 11 8
23 5 15 1 28 -13 42 -12 12 -24 21 -29 21 -4 0 -32 -17 -62 -37z"/>
<path d="M4838 5859 c-35 -20 -17 -82 112 -384 89 -209 239 -489 272 -506 22
-12 68 12 68 35 0 7 -20 49 -43 92 -92 167 -126 234 -192 379 -37 83 -86 197
-107 255 -51 135 -67 154 -110 129z"/>
<path d="M6862 5848 c-5 -7 -13 -35 -17 -63 -10 -66 -35 -114 -83 -157 -37
-33 -59 -43 -182 -76 -35 -10 -40 -55 -8 -76 54 -35 230 35 291 116 63 83 98
216 67 253 -15 18 -54 20 -68 3z"/>
<path d="M3015 5819 c-110 -24 -131 -37 -147 -90 -10 -34 -9 -52 4 -108 9 -36
19 -78 22 -93 9 -39 41 -54 72 -33 28 18 30 43 9 100 -20 56 -19 102 3 113 20
11 92 24 142 26 34 1 35 0 43 -48 9 -56 2 -66 -50 -66 -75 0 -109 -43 -65 -83
21 -20 50 -20 146 -3 85 15 95 26 79 93 -7 26 -15 71 -18 99 -13 104 -77 129
-240 93z"/>
<path d="M6032 5608 c-34 -34 12 -157 85 -232 134 -138 451 -236 757 -236 158
0 239 16 351 68 55 26 65 35 65 56 0 16 -9 32 -24 41 -23 15 -27 15 -63 -3
-21 -11 -72 -31 -113 -43 -66 -21 -94 -24 -230 -23 -167 1 -291 23 -456 80
-163 56 -264 144 -290 250 -4 16 -11 35 -17 42 -12 15 -49 16 -65 0z"/>
<path d="M4315 5590 c-17 -18 -16 -23 14 -110 102 -296 266 -662 427 -946 51
-92 76 -124 96 -124 4 0 17 9 29 21 27 27 21 52 -36 146 -115 189 -330 660
-416 912 -41 118 -72 147 -114 101z"/>
<path d="M4052 5558 c-7 -7 -12 -17 -12 -24 0 -6 48 -138 106 -293 l106 -282
-35 -42 c-79 -97 -111 -171 -129 -294 -30 -209 45 -428 221 -648 76 -94 235
-256 257 -261 27 -7 64 18 64 43 0 7 -53 70 -117 139 -175 186 -251 298 -304
444 -20 55 -23 84 -23 195 0 121 2 135 29 200 20 49 46 87 87 129 32 33 58 66
58 73 0 7 -41 122 -91 255 -51 134 -98 260 -106 282 -28 77 -42 96 -71 96 -16
0 -33 -5 -40 -12z"/>
<path d="M1883 5390 c-74 -33 -104 -120 -68 -190 18 -34 68 -64 94 -55 30 9
32 52 4 86 -28 33 -25 54 11 70 48 22 111 -14 122 -70 12 -59 94 -59 94 -1 0
63 -54 136 -122 165 -49 20 -84 19 -135 -5z"/>
<path d="M2500 5360 c-140 -27 -225 -188 -175 -331 21 -60 58 -104 119 -145
62 -41 116 -53 135 -31 24 29 9 60 -41 87 -90 49 -130 102 -130 175 0 24 7 56
16 73 34 67 124 99 185 67 34 -17 70 -81 71 -123 0 -45 41 -185 71 -241 35
-68 92 -150 121 -173 11 -10 30 -18 43 -18 22 0 55 28 55 47 0 6 -24 40 -53
75 -30 35 -67 87 -82 116 -34 63 -28 72 49 72 64 0 134 -38 169 -93 36 -55 36
-124 1 -226 -37 -106 -37 -177 -1 -224 31 -41 55 -46 80 -19 21 23 21 36 1 68
-22 33 -14 108 20 189 62 147 -1 313 -144 378 -35 17 -65 21 -137 21 l-91 0
-7 45 c-22 145 -142 238 -275 211z"/>
<path d="M5842 5274 c-49 -34 -16 -83 117 -173 34 -24 60 -48 57 -54 -25 -59
-66 -208 -77 -276 -12 -79 -12 -84 6 -97 10 -8 25 -14 32 -14 24 0 53 39 53
73 0 44 45 209 76 278 36 80 31 96 -46 140 -35 21 -85 55 -110 77 -67 57 -83
64 -108 46z"/>
<path d="M8165 5191 c-18 -30 -265 -163 -395 -214 -123 -47 -227 -77 -360
-103 -136 -27 -545 -27 -670 0 -125 27 -216 52 -303 86 -113 43 -124 41 -197
-32 -77 -77 -160 -193 -160 -225 0 -26 38 -50 63 -40 8 3 32 32 53 63 21 32
61 83 89 112 l51 55 89 -31 c378 -130 804 -145 1180 -42 179 50 410 153 558
250 78 52 88 69 71 114 -7 17 -59 22 -69 7z"/>
<path d="M8532 5168 c-29 -29 -11 -53 104 -141 62 -49 114 -92 114 -96 0 -5
-36 -9 -81 -10 -83 -2 -249 -30 -329 -54 -181 -57 -321 -159 -416 -302 -32
-48 -36 -58 -26 -80 14 -29 54 -42 88 -26 18 8 24 18 24 42 0 24 13 45 63 96
148 155 337 220 670 230 182 6 189 7 204 29 9 14 11 29 6 38 -4 8 -87 75 -183
150 -174 135 -209 153 -238 124z"/>
<path d="M2012 5008 c-13 -13 -16 -47 -4 -63 10 -15 125 -94 657 -450 491
-329 831 -558 1065 -718 475 -324 907 -603 1020 -659 133 -66 243 -85 299 -52
52 31 66 115 21 129 -23 7 -55 -8 -64 -30 -8 -22 -56 -19 -133 10 -147 56
-172 72 -1018 640 -1616 1086 -1796 1205 -1815 1205 -9 0 -21 -5 -28 -12z"/>
<path d="M1926 4768 c-52 -118 -86 -285 -86 -420 0 -273 111 -471 395 -702
283 -231 547 -419 985 -701 143 -93 342 -212 580 -347 389 -220 402 -226 430
-194 6 8 10 25 8 37 -3 24 -24 38 -173 119 -175 95 -538 305 -647 375 -26 17
-80 50 -120 75 -357 220 -958 653 -1121 809 -90 86 -132 140 -177 229 -36 71
-70 218 -70 304 0 70 31 232 60 313 41 113 36 155 -17 155 -20 0 -28 -10 -47
-52z"/>
<path d="M9032 4768 c-20 -20 -14 -40 31 -113 169 -273 293 -600 341 -900 25
-155 25 -155 27 -247 l2 -88 59 0 c37 0 57 4 53 10 -4 6 -11 68 -16 138 -24
316 -108 612 -264 922 -59 118 -150 270 -169 282 -17 12 -51 9 -64 -4z"/>
<path d="M3315 4696 c-99 -44 -133 -171 -65 -244 52 -55 120 2 75 62 -32 43
-1 96 57 96 51 0 88 -42 88 -99 -1 -25 -7 -57 -15 -71 -22 -38 -19 -69 9 -81
76 -35 137 129 87 236 -45 97 -147 140 -236 101z"/>
<path d="M4279 4677 c-9 -19 -2 -42 37 -133 83 -191 287 -572 341 -635 7 -8
13 -27 13 -41 0 -25 15 -42 57 -65 32 -18 57 -16 77 6 14 15 15 23 5 45 -9 19
-9 32 -2 49 18 38 159 219 232 297 73 78 86 111 52 130 -32 17 -79 12 -85 -8
-4 -10 -20 -34 -37 -53 -86 -95 -151 -173 -190 -230 l-42 -62 -21 26 c-53 66
-238 416 -312 588 -43 101 -49 109 -85 109 -21 0 -32 -7 -40 -23z"/>
<path d="M6335 4600 c-31 -35 -8 -62 82 -98 99 -39 224 -79 288 -92 28 -5 75
-15 105 -22 33 -7 142 -12 277 -13 152 0 223 -3 223 -11 0 -9 -47 -115 -69
-154 -5 -9 -27 -63 -50 -120 -23 -58 -46 -114 -51 -125 -22 -48 -103 -298
-131 -404 -17 -63 -33 -121 -36 -128 -4 -10 9 -13 50 -13 38 0 54 4 54 13 -1
12 6 39 39 157 62 218 155 461 260 679 41 85 74 164 74 177 0 39 -26 44 -156
29 -144 -17 -229 -18 -365 -4 -166 17 -337 60 -489 124 -72 30 -82 31 -105 5z"/>
<path d="M5594 4561 c-66 -40 -114 -147 -114 -256 0 -61 2 -66 26 -77 43 -20
58 -1 66 82 10 99 62 190 91 161 9 -9 5 -31 -16 -92 -29 -85 -27 -111 13 -124
26 -8 36 -1 57 38 45 89 57 217 22 261 -17 21 -29 26 -67 26 -28 0 -59 -8 -78
-19z"/>
<path d="M6760 4151 c-78 -25 -126 -72 -150 -145 -32 -99 28 -207 84 -151 11
12 14 28 9 65 -10 84 29 140 97 140 34 0 70 -30 70 -60 0 -26 -50 -81 -95
-106 -45 -24 -56 -58 -27 -87 21 -20 22 -20 58 -4 174 84 213 259 74 332 -35
18 -90 26 -120 16z"/>
<path d="M6810 3363 c-231 -23 -471 -102 -683 -224 -354 -204 -588 -471 -666
-760 -15 -55 -20 -66 -20 -41 -1 30 -6 35 -57 58 -60 27 -88 25 -105 -7 -17
-33 -4 -48 81 -86 l80 -36 0 -84 c0 -159 49 -281 154 -381 72 -69 128 -103
224 -137 246 -86 571 -46 887 110 61 29 139 73 175 97 80 52 220 191 220 218
0 22 -15 27 -26 9 -3 -6 -43 -38 -88 -71 -198 -148 -441 -219 -751 -219 -233
0 -403 51 -511 153 -68 64 -100 124 -115 216 -15 92 -5 178 35 294 125 363
478 677 884 785 80 21 121 26 232 27 82 1 151 -4 176 -11 103 -32 154 -101
154 -210 0 -78 -21 -136 -88 -237 -53 -80 -60 -100 -41 -112 16 -10 108 58
181 134 111 115 149 224 113 331 -43 129 -228 206 -445 184z"/>
<path d="M8500 3334 c-250 -22 -445 -78 -507 -146 -35 -38 -48 -100 -34 -160
12 -54 43 -98 69 -98 7 0 12 3 10 8 -2 4 -10 19 -17 34 -53 105 145 193 524
234 131 14 262 12 308 -5 15 -6 9 -13 -32 -39 -100 -65 -156 -171 -133 -251
15 -48 76 -106 128 -120 52 -14 70 3 32 31 -71 51 -10 158 126 222 123 59 252
87 510 111 167 16 286 19 286 9 0 -4 -55 -93 -123 -198 -295 -457 -552 -922
-616 -1113 -22 -65 -28 -143 -12 -143 14 0 15 3 111 205 176 372 333 624 688
1113 l103 142 52 0 c124 0 352 -54 394 -92 l22 -21 12 26 c36 78 -95 162 -309
199 -59 10 -72 15 -74 32 -4 26 -47 33 -90 15 -20 -8 -114 -13 -306 -14 -290
-2 -389 -12 -567 -56 l-82 -21 -55 31 c-31 18 -87 38 -124 46 -76 15 -224 25
-294 19z"/>
<path d="M8545 3152 c-153 -114 -396 -452 -741 -1033 l-105 -176 -78 -7 c-154
-13 -315 -66 -394 -130 -90 -73 -113 -158 -67 -251 14 -27 31 -51 38 -53 11
-3 12 0 3 16 -6 11 -11 36 -11 56 0 86 128 161 359 211 79 18 84 18 93 1 9
-16 12 -16 34 5 21 19 37 22 141 26 130 6 245 -7 294 -31 39 -20 47 -14 29 20
-28 51 -151 104 -290 125 -44 6 -80 13 -80 14 0 7 106 174 149 235 100 143
268 348 471 575 188 209 320 367 320 381 0 18 -31 33 -82 40 -37 5 -49 2 -83
-24z"/>
<path d="M5110 2981 c-5 -11 -10 -31 -10 -45 0 -48 -32 -162 -63 -226 -42 -86
-160 -205 -240 -244 -122 -58 -234 -76 -340 -56 -83 15 -110 4 -105 -43 3 -27
9 -33 43 -43 56 -17 218 -16 293 1 132 31 273 119 358 222 47 59 110 179 120
232 8 40 14 39 159 -29 58 -28 108 -50 111 -50 2 0 4 25 4 55 0 32 -4 55 -10
55 -18 0 -224 100 -231 112 -4 7 -5 16 -2 20 2 5 -3 20 -11 33 -20 30 -61 33
-76 6z"/>
</g>
</svg>
