 <svg  version="1.0" xmlns="http://www.w3.org/2000/svg"  width="300.000000pt" height="100.000000pt" viewBox="0 0 300.000000 100.000000"  preserveAspectRatio="xMidYMid meet">  <g transform="translate(0.000000,100.000000) scale(0.100000,-0.100000)" fill="#ffffff" stroke="none"> <path d="M1400 934 c-20 -66 -28 -143 -10 -99 4 11 16 47 25 80 10 33 20 66 22 73 3 6 0 12 -6 12 -5 0 -19 -30 -31 -66z"/> <path d="M1470 943 c-24 -65 -37 -122 -24 -110 12 12 62 167 53 167 -4 0 -17 -26 -29 -57z"/> <path d="M1589 885 c-15 -68 -21 -114 -15 -112 16 5 62 227 47 227 -4 0 -18 -52 -32 -115z"/> <path d="M1717 975 c-7 -30 -42 -152 -54 -189 -4 -13 -2 -17 5 -12 17 11 64 169 60 202 l-4 29 -7 -30z"/> <path d="M1394 806 c-3 -8 -12 -12 -20 -9 -8 3 -14 1 -14 -5 0 -6 4 -12 10 -14 5 -1 7 -13 4 -26 -5 -18 -9 -20 -20 -11 -11 9 -14 9 -14 0 0 -18 97 -59 157 -67 57 -7 143 2 143 15 0 4 -33 6 -74 3 -87 -5 -191 20 -181 45 3 8 5 18 5 23 0 5 24 0 53 -10 62 -22 187 -37 187 -23 0 6 -31 13 -68 16 -37 4 -89 14 -115 23 -39 13 -47 19 -42 35 7 22 -3 26 -11 5z"/> <path d="M1380 661 c0 -12 5 -21 10 -21 6 0 10 6 10 14 0 8 -4 18 -10 21 -5 3 -10 -3 -10 -14z"/> <path d="M794 655 c-4 -9 -1 -22 6 -28 10 -10 12 -8 7 6 -4 9 -2 17 3 17 6 0 10 -7 10 -15 0 -8 5 -15 11 -15 6 0 9 10 7 22 -4 27 -35 36 -44 13z"/> <path d="M1036 649 c-14 -11 -26 -28 -26 -37 1 -13 6 -10 21 11 16 21 29 27 58 27 63 0 105 -64 64 -96 -17 -12 -17 -13 -1 -14 28 0 42 37 27 71 -23 56 -96 75 -143 38z"/> <path d="M1635 660 c-3 -5 3 -10 13 -10 37 0 38 -51 1 -71 -15 -7 -19 -6 -19 6 0 29 -19 15 -22 -17 -2 -25 -10 -36 -33 -48 -26 -12 -27 -15 -10 -18 12 -3 29 7 47 27 15 17 32 31 36 31 17 0 42 37 42 61 0 39 -38 66 -55 39z"/> <path d="M1487 646 c-4 -10 -5 -21 -2 -24 9 -9 17 6 13 25 -3 17 -4 17 -11 -1z"/> <path d="M1054 622 c-20 -15 -44 -52 -44 -66 0 -3 5 -6 10 -6 6 0 10 5 10 12 0 7 12 24 27 40 30 32 28 45 -3 20z"/> <path d="M1110 599 c11 -20 9 -25 -21 -52 -19 -16 -27 -27 -18 -24 20 7 48 -78 30 -96 -21 -21 -12 -72 19 -115 17 -23 35 -42 40 -42 16 0 12 10 -20 47 -32 36 -40 89 -18 111 8 8 7 22 -6 56 -16 42 -16 47 -1 62 19 19 16 65 -3 72 -11 4 -12 0 -2 -19z"/> <path d="M1333 593 c-14 -29 -17 -51 -7 -40 7 7 23 -9 40 -38 6 -11 22 -26 35 -32 40 -21 147 -15 134 8 -3 4 -17 4 -30 -1 -29 -11 -80 -3 -112 16 -28 18 -30 38 -3 29 11 -3 20 -2 20 3 0 6 -11 13 -25 16 -39 10 -20 25 24 19 23 -3 41 -1 45 6 5 7 -6 11 -33 11 -22 0 -46 7 -55 15 -19 19 -19 19 -33 -12z"/> <path d="M840 566 c0 -14 5 -28 10 -31 6 -4 10 6 10 22 0 22 2 25 10 13 5 -8 7 -24 4 -35 -5 -15 -3 -17 6 -9 19 19 8 59 -17 62 -19 3 -23 -1 -23 -22z"/> <path d="M1503 572 c10 -10 17 -28 17 -40 0 -12 5 -22 10 -22 13 0 13 36 0 61 -6 10 -18 19 -27 19 -15 0 -15 -2 0 -18z"/> <path d="M1046 558 c-18 -26 -21 -58 -5 -58 6 0 9 7 5 15 -3 9 3 24 14 35 22 22 25 30 11 30 -6 0 -17 -10 -25 -22z"/> <path d="M938 563 c-20 -5 -23 -20 -8 -43 8 -12 10 -11 10 8 0 12 4 22 10 22 5 0 7 -7 4 -15 -4 -10 0 -15 11 -15 11 0 15 7 13 22 -3 23 -13 28 -40 21z"/> <path d="M1190 564 c0 -17 54 -124 62 -124 5 0 8 4 6 8 -1 4 -14 33 -27 65 -14 31 -28 57 -33 57 -4 0 -8 -3 -8 -6z"/> <path d="M1470 554 c0 -9 -9 -18 -20 -21 -11 -3 -20 -9 -20 -14 0 -15 19 -10 40 11 22 22 26 40 10 40 -5 0 -10 -7 -10 -16z"/> <path d="M1120 524 c0 -16 70 -154 79 -154 11 0 -60 160 -71 160 -5 0 -8 -3 -8 -6z"/> <path d="M781 497 c-11 -14 -5 -27 11 -27 5 0 6 5 3 10 -3 6 -1 10 4 10 6 0 11 -5 11 -11 0 -5 5 -7 10 -4 8 5 7 11 -1 21 -14 18 -23 18 -38 1z"/> <path d="M854 486 c-10 -25 0 -51 21 -54 20 -4 20 -3 1 11 -12 9 -17 20 -13 31 10 26 28 15 41 -24 6 -18 17 -35 24 -38 11 -3 12 0 2 18 -10 18 -9 21 2 18 7 -3 15 -22 18 -44 l5 -39 7 32 c9 42 2 62 -27 69 -13 3 -26 12 -29 20 -7 18 -45 18 -52 0z"/> <path d="M1330 481 c0 -5 7 -11 15 -15 11 -4 13 -11 5 -30 -5 -15 -5 -28 0 -31 14 -9 23 54 10 70 -14 17 -30 20 -30 6z"/> <path d="M1618 459 c-51 -26 -117 -34 -174 -20 -50 13 -74 4 -74 -28 1 -14 3 -14 15 2 12 17 19 18 68 7 73 -15 189 12 212 50 9 15 -5 12 -47 -11z"/> <path d="M1700 474 c0 -4 8 -13 18 -20 16 -12 15 -13 -8 -14 -26 0 -96 -37 -87 -46 3 -3 19 2 36 11 17 8 47 16 66 17 41 1 43 7 12 36 -23 22 -37 28 -37 16z"/> <path d="M803 444 c3 -4 0 -16 -8 -28 -21 -28 -19 -75 5 -113 29 -48 284 -220 312 -211 6 2 -15 19 -48 38 -83 46 -193 122 -233 159 -31 29 -33 35 -29 81 3 28 8 53 11 56 3 3 89 -51 191 -120 170 -115 226 -144 226 -116 0 6 -9 10 -19 10 -11 0 -103 56 -206 125 -102 69 -191 125 -197 125 -6 0 -8 -3 -5 -6z"/> <path d="M1772 408 c2 -6 10 -14 16 -16 7 -2 10 2 6 12 -7 18 -28 22 -22 4z"/> <path d="M975 400 c-4 -7 -2 -17 4 -23 8 -8 11 -8 11 1 0 7 4 12 10 12 5 0 7 -7 4 -15 -4 -8 -1 -15 6 -15 6 0 10 10 8 22 -3 25 -32 36 -43 18z"/> <path d="M1120 398 c0 -7 14 -37 31 -67 28 -48 32 -52 42 -35 5 10 19 29 30 42 11 12 16 22 10 22 -5 0 -18 -9 -28 -20 -25 -28 -29 -26 -50 20 -19 43 -35 60 -35 38z"/> <path d="M1400 392 c0 -13 62 -32 104 -32 23 0 27 -3 21 -17 -32 -76 -61 -203 -47 -203 5 0 16 35 26 78 9 42 26 95 36 116 11 22 20 40 20 42 0 1 -28 4 -62 6 -35 3 -71 8 -80 13 -11 4 -18 3 -18 -3z"/> <path d="M1286 374 c-9 -22 -7 -34 3 -34 15 0 42 31 36 41 -10 14 -32 10 -39 -7z"/> <path d="M1775 381 c-80 -20 -164 -81 -195 -142 -60 -117 19 -210 154 -180 56 12 132 55 141 79 4 12 0 11 -17 -2 -40 -29 -71 -39 -134 -44 -102 -7 -145 30 -130 111 18 95 177 193 260 161 21 -8 21 -53 0 -82 -23 -33 0 -26 30 9 36 43 33 64 -11 88 -24 12 -52 13 -98 2z"/> <path d="M2085 373 c-11 -3 -26 -10 -32 -15 -15 -12 -18 -58 -4 -58 5 0 8 8 7 17 -1 20 58 41 118 42 37 1 38 0 23 -17 -22 -24 -21 -46 0 -63 15 -12 16 -12 11 3 -4 9 1 23 11 32 17 16 101 36 147 36 24 0 24 0 -10 -47 -48 -69 -116 -196 -116 -219 0 -10 17 13 38 51 21 39 60 103 87 143 46 69 51 74 80 69 16 -3 38 -9 49 -13 14 -5 17 -3 14 7 -9 26 -87 41 -178 34 -47 -3 -89 -5 -95 -5 -66 6 -134 7 -150 3z"/> <path d="M1026 354 c-4 -9 -4 -19 -1 -22 3 -3 5 0 5 6 0 7 7 12 15 12 8 0 15 5 15 10 0 16 -27 11 -34 -6z"/> <path d="M2115 308 c-20 -24 -57 -78 -83 -120 -37 -60 -52 -78 -70 -78 -41 0 -82 -28 -82 -55 0 -14 5 -25 11 -25 5 0 8 4 4 10 -13 21 47 44 116 44 58 1 66 3 52 13 -9 7 -25 13 -35 13 -10 0 -18 4 -18 9 0 11 76 111 129 171 44 49 49 60 27 60 -8 0 -31 -19 -51 -42z"/> <path d="M1453 333 c-17 -6 -16 -40 1 -46 15 -6 36 11 36 29 0 14 -20 23 -37 17z"/> <path d="M1226 145 c-7 -27 -59 -60 -82 -51 -8 3 -14 1 -14 -4 0 -6 14 -10 30 -10 31 0 80 37 80 60 0 8 6 8 21 0 11 -6 25 -9 32 -7 7 2 -2 11 -20 20 -41 21 -40 22 -47 -8z"/> <path d="M1320 145 c-20 -24 1 -41 73 -59 15 -3 27 -2 27 3 0 5 -20 14 -45 20 -42 11 -53 20 -39 34 3 3 27 -1 52 -9 56 -17 52 -16 52 -4 0 9 -62 30 -91 30 -9 0 -22 -7 -29 -15z"/> <path d="M1255 91 c-2 -5 30 -23 73 -41 42 -19 81 -37 87 -42 5 -4 20 -8 35 -8 31 0 57 15 42 24 -6 3 -13 2 -17 -4 -9 -15 -45 -12 -51 5 -4 8 -9 13 -13 11 -3 -2 -39 11 -78 29 -40 19 -75 30 -78 26z"/> <path d="M1360 71 c0 -10 35 -21 70 -21 14 0 20 4 15 9 -14 12 -85 22 -85 12z"/> <path d="M1714 15 c-14 -11 -15 -14 -4 -14 8 0 24 6 34 14 15 11 16 15 5 15 -8 0 -24 -7 -35 -15z"/> </g> </svg> 