 <svg  version="1.0" xmlns="http://www.w3.org/2000/svg"  width="300.000000pt" height="300.000000pt" viewBox="0 0 300.000000 300.000000"  preserveAspectRatio="xMidYMid meet">  <g transform="translate(0.000000,300.000000) scale(0.100000,-0.100000)" fill="#fdc700" stroke="none"> <path d="M1773 2574 c-30 -15 -52 -48 -40 -60 3 -3 16 6 30 20 22 22 35 26 80 26 64 0 169 -30 247 -71 102 -53 120 -78 120 -172 0 -106 -39 -261 -105 -419 -5 -12 -3 -18 7 -18 8 0 25 30 41 71 67 171 102 369 78 442 -23 69 -115 128 -267 172 -99 29 -146 31 -191 9z"/> <path d="M1723 2413 c-58 -111 -96 -212 -124 -328 -23 -96 -23 -105 -5 -105 9 0 16 18 20 53 11 82 72 252 132 366 29 57 54 106 54 108 0 2 -6 3 -13 3 -8 0 -36 -44 -64 -97z"/> <path d="M1835 2398 c-45 -100 -97 -233 -119 -310 -9 -32 -19 -64 -22 -73 -4 -9 -1 -15 9 -15 9 0 20 22 32 63 22 80 94 266 134 344 27 55 30 73 11 73 -4 0 -24 -37 -45 -82z"/> <path d="M2036 2409 c-3 -8 -17 -84 -31 -169 -14 -85 -36 -200 -50 -255 -16 -63 -21 -103 -15 -109 12 -12 14 -7 45 127 37 159 75 400 65 411 -6 6 -11 4 -14 -5z"/> <path d="M1604 1935 c-6 -26 -18 -32 -29 -15 -9 15 -25 12 -25 -4 0 -8 9 -17 20 -21 18 -6 19 -9 5 -40 -9 -24 -10 -37 -3 -41 12 -7 28 13 28 37 0 27 9 27 69 3 118 -48 367 -78 378 -46 4 9 -13 12 -64 12 -91 0 -181 16 -278 48 -80 27 -80 27 -77 60 4 38 -15 43 -24 7z"/> <path d="M1506 1821 c-9 -13 68 -56 160 -88 71 -25 92 -28 214 -28 138 0 190 7 190 26 0 7 -16 8 -52 2 -151 -24 -321 1 -443 65 -27 15 -53 28 -57 30 -3 2 -9 -1 -12 -7z"/> <path d="M1587 1673 c-6 -31 0 -46 14 -38 12 8 12 65 0 65 -5 0 -11 -12 -14 -27z"/> <path d="M496 1674 c-20 -20 -20 -38 -1 -54 20 -17 32 -5 15 15 -10 12 -9 16 3 21 25 9 39 -6 33 -32 -7 -28 18 -35 28 -8 9 25 7 33 -14 54 -24 24 -43 25 -64 4z"/> <path d="M970 1671 c-37 -19 -83 -77 -74 -92 8 -14 24 -11 24 5 0 8 16 28 35 45 70 61 188 33 230 -55 21 -44 12 -84 -23 -99 -24 -11 -28 -20 -12 -30 6 -4 24 7 40 24 103 102 -84 275 -220 202z"/> <path d="M2068 1679 c-28 -16 -21 -29 11 -23 62 13 80 -82 24 -126 -34 -27 -50 -25 -57 5 -10 41 -26 28 -26 -21 0 -39 -5 -51 -34 -80 -19 -19 -43 -34 -55 -34 -12 0 -21 -6 -21 -16 0 -34 98 18 120 64 8 17 19 32 23 32 5 0 24 7 43 16 65 31 86 123 39 169 -26 27 -40 30 -67 14z"/> <path d="M1784 1646 c-8 -20 -1 -47 11 -49 6 -1 11 13 13 31 3 32 -14 45 -24 18z"/> <path d="M974 1598 c-34 -31 -73 -96 -74 -125 0 -7 7 -13 15 -13 9 0 15 9 15 23 0 32 36 85 70 105 16 9 30 23 30 30 0 20 -17 14 -56 -20z"/> <path d="M1060 1593 c0 -4 10 -17 22 -30 31 -33 16 -69 -41 -103 -47 -27 -64 -50 -37 -50 9 0 16 4 16 8 0 5 18 17 41 27 22 10 44 26 50 36 14 27 11 72 -7 97 -14 20 -44 31 -44 15z"/> <path d="M1512 1581 c2 -10 -4 -27 -13 -37 -22 -25 -32 -61 -20 -69 6 -3 17 10 25 30 17 39 27 42 79 20 59 -24 137 -18 137 11 0 17 -2 17 -33 3 -33 -15 -132 13 -147 41 -14 25 -32 26 -28 1z"/> <path d="M596 1534 c-18 -18 -20 -42 -6 -78 16 -43 30 -31 23 20 -5 37 -3 46 7 42 26 -8 35 -36 23 -68 -12 -33 -2 -48 17 -25 22 26 17 85 -9 106 -28 23 -35 23 -55 3z"/> <path d="M1790 1536 c0 -8 9 -18 20 -21 26 -8 52 -59 48 -92 -4 -33 18 -42 24 -11 7 38 -10 85 -43 112 -34 29 -49 33 -49 12z"/> <path d="M977 1498 c-39 -37 -56 -82 -40 -106 13 -22 33 -27 33 -8 0 9 -5 16 -11 16 -19 0 2 44 38 79 22 21 31 37 25 43 -6 6 -22 -3 -45 -24z"/> <path d="M1526 1508 c-23 -32 -20 -48 9 -48 14 0 42 -7 62 -15 24 -10 40 -12 47 -5 11 11 -49 40 -84 40 -22 0 -26 10 -9 27 7 7 7 13 1 17 -6 4 -18 -4 -26 -16z"/> <path d="M1717 1500 c-21 -25 -21 -30 -2 -30 8 0 15 4 15 9 0 5 7 17 16 25 12 12 12 16 2 16 -7 0 -21 -9 -31 -20z"/> <path d="M1237 1504 c-7 -7 21 -80 64 -166 37 -75 35 -72 49 -63 7 5 5 17 -9 41 -11 18 -34 66 -52 106 -34 79 -42 92 -52 82z"/> <path d="M771 1491 c-34 -9 -45 -31 -32 -64 14 -36 32 -26 24 13 -5 27 -3 30 21 30 16 0 26 -5 26 -15 0 -8 -7 -15 -16 -15 -9 0 -14 -5 -12 -11 2 -6 7 -10 11 -10 4 1 16 1 27 1 22 0 27 28 10 61 -11 20 -19 21 -59 10z"/> <path d="M1750 1469 c-9 -21 -22 -32 -41 -36 -16 -3 -29 -12 -29 -19 0 -24 40 -15 71 15 16 16 29 39 29 50 0 31 -16 26 -30 -10z"/> <path d="M1650 1481 c0 -18 18 -21 30 -6 10 13 9 15 -9 15 -11 0 -21 -4 -21 -9z"/> <path d="M1803 1443 c1 -30 6 -51 12 -50 17 6 17 44 1 74 -14 28 -15 28 -13 -24z"/> <path d="M1100 1435 c0 -21 117 -283 135 -304 2 -1 8 0 14 3 6 4 -7 40 -34 92 -24 47 -54 115 -67 150 -12 35 -28 64 -35 64 -7 0 -13 -2 -13 -5z"/> <path d="M1540 1424 c0 -28 55 -72 110 -88 63 -19 158 -21 195 -4 31 14 33 33 3 24 -60 -17 -108 -17 -168 -2 -64 17 -110 47 -110 73 0 7 -7 13 -15 13 -8 0 -15 -7 -15 -16z"/> <path d="M1040 1415 c0 -8 12 -44 26 -80 l26 -64 -21 -27 c-29 -37 -29 -126 0 -173 32 -53 92 -121 106 -121 21 0 16 10 -28 57 -78 85 -97 163 -55 226 l24 36 -30 80 c-29 75 -48 102 -48 66z"/> <path d="M476 1377 c-22 -16 -17 -50 8 -55 14 -3 17 0 11 17 -8 25 19 30 29 6 7 -19 26 -20 26 -2 0 16 -31 47 -46 47 -6 0 -18 -6 -28 -13z"/> <path d="M615 1355 c-14 -13 -25 -33 -25 -45 0 -21 41 -70 59 -70 22 0 19 19 -4 34 -29 19 -34 63 -9 73 26 10 48 -10 56 -51 10 -49 47 -101 61 -87 6 6 3 18 -12 37 -11 15 -21 31 -21 35 0 15 27 10 51 -10 21 -17 22 -22 13 -64 -7 -27 -7 -52 -2 -61 13 -23 29 -9 22 19 -3 13 0 33 6 45 9 17 9 29 -1 51 -13 34 -36 49 -73 49 -16 0 -26 6 -26 15 0 20 -36 55 -55 55 -9 0 -27 -11 -40 -25z"/> <path d="M1494 1349 c-3 -6 6 -21 21 -33 26 -21 27 -23 14 -64 -9 -32 -9 -46 -1 -54 13 -13 12 -13 32 65 7 26 11 49 9 50 -2 1 -18 12 -36 24 -21 15 -34 19 -39 12z"/> <path d="M2044 1303 c-114 -63 -245 -76 -376 -37 l-52 16 -28 -31 c-26 -29 -37 -61 -21 -61 3 0 18 14 32 31 l26 30 60 -15 c75 -20 184 -20 258 -1 64 17 147 56 166 78 23 28 -4 24 -65 -10z"/> <path d="M640 1313 c0 -10 9 -24 19 -30 17 -11 18 -10 12 14 -8 31 -31 43 -31 16z"/> <path d="M2180 1322 c0 -5 17 -21 37 -35 l38 -27 -39 0 c-62 0 -117 -21 -160 -62 -29 -28 -37 -41 -29 -49 8 -8 22 -1 50 29 40 42 100 62 183 62 22 0 40 4 40 8 0 10 -96 82 -110 82 -5 0 -10 -4 -10 -8z"/> <path d="M512 1278 c5 -15 631 -438 700 -474 55 -28 83 -30 92 -8 3 9 6 16 6 18 0 1 -18 1 -39 1 -35 0 -81 28 -394 238 -194 130 -357 237 -361 237 -4 0 -6 -6 -4 -12z"/> <path d="M490 1214 c-19 -48 -23 -119 -10 -158 16 -50 58 -96 150 -166 119 -91 424 -280 451 -280 23 0 5 21 -38 46 -257 146 -493 314 -525 374 -20 39 -24 123 -8 166 7 18 7 31 1 37 -7 7 -14 1 -21 -19z"/> <path d="M690 1219 c0 -18 57 -66 67 -56 3 4 -11 21 -31 40 -29 27 -36 31 -36 16z"/> <path d="M2316 1223 c-3 -3 6 -26 20 -50 34 -58 71 -168 79 -237 5 -38 12 -56 21 -56 29 0 -9 167 -60 269 -36 70 -48 86 -60 74z"/> <path d="M532 1191 c-16 -46 -15 -116 3 -150 22 -44 158 -140 447 -314 136 -82 160 -89 225 -62 54 23 73 44 73 79 l-1 31 -17 -35 c-20 -41 -53 -59 -113 -61 -36 -2 -57 6 -112 40 -37 22 -70 41 -72 41 -3 0 -58 34 -123 76 -298 194 -306 202 -308 277 -1 29 3 60 8 70 5 10 8 23 5 30 -2 6 -9 -4 -15 -22z"/> <path d="M836 1191 c-14 -16 -15 -23 -6 -40 13 -26 33 -17 24 11 -5 16 -2 19 13 16 12 -2 18 -12 18 -30 0 -38 12 -45 26 -15 10 22 9 31 -5 52 -20 30 -46 32 -70 6z"/> <path d="M1096 1202 c-8 -13 109 -227 125 -227 8 0 13 6 11 14 -2 7 16 36 39 63 27 32 38 53 32 59 -7 7 -24 -8 -49 -41 -45 -59 -43 -61 -101 58 -37 75 -48 88 -57 74z"/> <path d="M1626 1182 c-23 -22 62 -52 171 -59 80 -6 81 -6 68 -27 -14 -22 -75 -190 -75 -207 0 -5 6 -9 13 -9 7 0 21 29 31 65 10 36 32 93 47 126 16 33 29 64 29 68 0 4 -39 8 -87 8 -64 0 -102 6 -140 21 -29 11 -54 17 -57 14z"/> <path d="M1426 1162 c-20 -23 -26 -73 -8 -79 7 -3 12 4 12 15 0 27 10 52 21 52 5 0 4 -12 -2 -26 -12 -34 -2 -45 17 -19 18 25 14 69 -7 73 -8 1 -23 -6 -33 -16z"/> <path d="M935 1120 c-3 -11 -13 -26 -20 -34 -12 -12 -4 -22 61 -70 42 -32 78 -55 81 -53 3 4 -14 20 -90 84 -29 24 -38 67 -12 57 20 -8 35 4 28 21 -8 22 -41 18 -48 -5z"/> <path d="M1709 1049 c-11 -11 -19 -30 -17 -42 4 -28 21 -25 28 5 3 13 14 24 23 26 24 5 21 -25 -4 -39 -15 -8 -18 -14 -10 -22 8 -8 18 -4 36 13 30 28 31 41 7 63 -24 22 -38 21 -63 -4z"/> <path d="M1468 873 c45 -2 119 -2 165 0 45 1 8 3 -83 3 -91 0 -128 -2 -82 -3z"/> <path d="M1972 873 c82 -2 214 -2 295 0 82 1 15 3 -147 3 -162 0 -229 -2 -148 -3z"/> <path d="M2513 873 c32 -2 81 -2 110 0 29 2 3 3 -58 3 -60 0 -84 -1 -52 -3z"/> <path d="M1639 836 c-31 -12 -72 -33 -92 -45 -50 -31 -123 -115 -137 -157 -9 -26 -15 -33 -23 -25 -6 6 -17 11 -24 11 -22 0 -14 -20 12 -32 20 -9 25 -18 25 -48 0 -135 222 -163 379 -50 57 41 52 56 -6 20 -87 -54 -219 -62 -290 -19 -37 23 -43 36 -43 92 0 81 72 177 172 228 58 30 167 38 191 14 23 -22 21 -53 -4 -94 -28 -46 -18 -49 25 -6 44 44 50 94 14 119 -34 24 -131 20 -199 -8z"/> <path d="M2440 848 c-63 -5 -124 -9 -135 -8 -11 0 -58 3 -105 6 -69 4 -92 1 -120 -13 -36 -19 -51 -56 -31 -76 8 -8 11 -5 11 9 0 12 10 25 24 32 43 19 139 32 171 23 17 -5 25 -10 18 -10 -39 -3 -58 -72 -24 -91 28 -14 36 -12 21 5 -17 20 9 50 55 65 30 10 176 30 183 25 1 -1 -23 -40 -53 -86 -68 -102 -145 -253 -145 -283 0 -11 20 20 44 69 25 50 75 135 113 190 65 94 71 100 106 103 21 2 51 -4 68 -12 28 -14 30 -14 27 2 -2 10 -22 23 -48 32 -25 8 -46 18 -48 23 -2 4 -7 6 -10 5 -4 0 -59 -5 -122 -10z"/> <path d="M2148 760 c-24 -28 -73 -97 -109 -155 l-64 -104 -51 -11 c-28 -6 -61 -20 -73 -31 -22 -21 -28 -63 -10 -74 6 -4 10 -1 8 6 -1 8 -1 19 0 26 1 13 80 46 102 42 8 -1 22 1 33 6 10 4 38 3 62 -2 24 -6 44 -7 44 -2 0 12 -16 19 -60 27 l-41 7 42 60 c23 33 76 100 118 148 86 100 90 107 63 107 -12 0 -39 -21 -64 -50z"/> <path d="M1306 736 c-7 -38 -37 -80 -69 -98 -12 -7 -44 -15 -72 -18 -62 -6 -57 -25 6 -25 58 1 120 39 139 87 7 18 15 34 16 36 1 2 16 -4 33 -12 37 -19 41 -20 41 -3 0 7 -16 21 -35 30 -19 9 -35 21 -35 27 0 25 -18 7 -24 -24z"/> </g> </svg> 